<svg width="38" height="40" viewBox="0 0 38 40" fill="none" xmlns="http://www.w3.org/2000/svg">
<g filter="url(#filter0_d_259_745)">
<path d="M13.135 17.445H6.1C6.22 10.44 7.6 9.28496 11.905 6.73496C12.4 6.43496 12.565 5.80496 12.265 5.29496C11.98 4.79996 11.335 4.63496 10.84 4.93496C5.77 7.93496 4 9.76496 4 18.48V26.565C4 29.13 6.085 31.2 8.635 31.2H13.135C15.775 31.2 17.77 29.205 17.77 26.565V22.065C17.77 19.44 15.775 17.445 13.135 17.445Z" fill="white"/>
<path d="M29.3648 17.445H22.3298C22.4498 10.44 23.8298 9.28496 28.1348 6.73496C28.6298 6.43496 28.7948 5.80496 28.4948 5.29496C28.1948 4.79996 27.5648 4.63496 27.0548 4.93496C21.9848 7.93496 20.2148 9.76496 20.2148 18.495V26.58C20.2148 29.145 22.2998 31.215 24.8498 31.215H29.3498C31.9898 31.215 33.9848 29.22 33.9848 26.58V22.08C33.9998 19.44 32.0048 17.445 29.3648 17.445Z" fill="white"/>
</g>
<defs>
<filter id="filter0_d_259_745" x="0" y="4.78491" width="37.9854" height="34.4299" filterUnits="userSpaceOnUse" color-interpolation-filters="sRGB">
<feFlood flood-opacity="0" result="BackgroundImageFix"/>
<feColorMatrix in="SourceAlpha" type="matrix" values="0 0 0 0 0 0 0 0 0 0 0 0 0 0 0 0 0 0 127 0" result="hardAlpha"/>
<feOffset dy="4"/>
<feGaussianBlur stdDeviation="2"/>
<feComposite in2="hardAlpha" operator="out"/>
<feColorMatrix type="matrix" values="0 0 0 0 0 0 0 0 0 0 0 0 0 0 0 0 0 0 0.25 0"/>
<feBlend mode="normal" in2="BackgroundImageFix" result="effect1_dropShadow_259_745"/>
<feBlend mode="normal" in="SourceGraphic" in2="effect1_dropShadow_259_745" result="shape"/>
</filter>
</defs>
</svg>
